<?xml version="1.0" encoding="UTF-8" standalone="no"?>
<!DOCTYPE svg PUBLIC "-//W3C//DTD SVG 1.1//EN" "http://www.w3.org/Graphics/SVG/1.1/DTD/svg11.dtd">
<svg width="100%" height="100%" viewBox="0 0 512 512" version="1.1" xmlns="http://www.w3.org/2000/svg" xmlns:xlink="http://www.w3.org/1999/xlink" xml:space="preserve" xmlns:serif="http://www.serif.com/" style="fill-rule:evenodd;clip-rule:evenodd;stroke-linejoin:round;stroke-miterlimit:2;">
    <path id="WhatsApp-Logo" d="M373.295,307.064C366.925,303.876 335.608,288.468 329.769,286.34C323.931,284.214 319.685,283.153 315.438,289.528C311.192,295.904 298.984,310.253 295.268,314.504C291.553,318.755 287.837,319.289 281.468,316.098C275.098,312.911 254.573,306.185 230.243,284.482C211.308,267.592 198.523,246.733 194.808,240.356C191.092,233.979 194.411,230.532 197.6,227.356C200.467,224.502 203.971,219.916 207.155,216.196C210.341,212.478 211.402,209.819 213.525,205.57C215.648,201.318 214.587,197.599 212.993,194.411C211.402,191.223 198.663,159.869 193.355,147.113C188.184,134.694 182.933,136.376 179.023,136.179C175.312,135.995 171.06,135.956 166.815,135.956C162.569,135.956 155.667,137.55 149.828,143.925C143.99,150.302 127.535,165.714 127.535,197.065C127.535,228.42 150.359,258.707 153.544,262.959C156.729,267.211 198.46,331.549 262.36,359.14C277.556,365.704 289.422,369.623 298.672,372.558C313.931,377.407 327.817,376.723 338.793,375.082C351.031,373.255 376.479,359.674 381.788,344.796C387.095,329.914 387.095,317.161 385.503,314.504C383.911,311.847 379.665,310.253 373.295,307.064M257.071,465.757L256.985,465.757C218.963,465.742 181.672,455.527 149.14,436.222L141.402,431.63L61.208,452.667L82.613,374.477L77.576,366.46C56.365,332.725 45.162,293.734 45.179,253.697C45.226,136.872 140.279,41.827 257.155,41.827C313.75,41.846 366.95,63.915 406.956,103.966C446.961,144.016 468.979,197.252 468.957,253.868C468.909,370.702 373.857,465.757 257.071,465.757M437.403,73.533C389.272,25.347 325.265,-1.202 257.068,-1.23C116.554,-1.23 2.193,113.124 2.136,253.681C2.118,298.613 13.856,342.467 36.166,381.129L-0,513.231L135.141,477.781C172.377,498.091 214.3,508.796 256.967,508.81L257.072,508.81C397.571,508.81 511.942,394.444 512,253.885C512.026,185.768 485.533,121.719 437.403,73.533" style="fill:white;"/>
</svg>
