<?xml version="1.0" encoding="UTF-8" standalone="no"?>
<!DOCTYPE svg PUBLIC "-//W3C//DTD SVG 1.1//EN" "http://www.w3.org/Graphics/SVG/1.1/DTD/svg11.dtd">
<svg width="100%" height="100%" viewBox="0 0 1440 250" version="1.1" xmlns="http://www.w3.org/2000/svg" xmlns:xlink="http://www.w3.org/1999/xlink" xml:space="preserve" xmlns:serif="http://www.serif.com/" style="fill-rule:evenodd;clip-rule:evenodd;stroke-linejoin:round;stroke-miterlimit:2;">
    <path d="M0,175L48,150C96,125 192,75 288,62.5C384,50 480,75 576,104.2C672,133 768,167 864,154.2C960,142 1056,83 1152,87.5C1248,92 1344,158 1440,187.5C1536,217 1632,208 1728,200C1824,192 1920,183 2016,162.5C2112,142 2208,108 2304,87.5C2400,67 2496,58 2592,54.2C2688,50 2784,50 2880,62.5C2976,75 3072,100 3168,95.8C3264,92 3360,58 3456,37.5C3552,17 3648,8 3744,20.8C3840,33 3936,67 4032,75C4128,83 4224,67 4320,66.7C4416,67 4512,83 4608,79.2C4704,75 4800,50 4896,45.8C4992,42 5088,58 5184,75C5280,92 5376,108 5472,100C5568,92 5664,58 5760,58.3C5856,58 5952,92 6048,125C6144,158 6240,192 6336,183.3C6432,175 6528,125 6624,100C6720,75 6816,75 6864,75L6912,75L6912,250L0,250L0,175Z" style="fill:white;fill-rule:nonzero;"/>
</svg>
