<?xml version="1.0" encoding="UTF-8" standalone="no"?>
<!DOCTYPE svg PUBLIC "-//W3C//DTD SVG 1.1//EN" "http://www.w3.org/Graphics/SVG/1.1/DTD/svg11.dtd">
<svg width="100%" height="100%" viewBox="0 0 195 114" version="1.1" xmlns="http://www.w3.org/2000/svg" xmlns:xlink="http://www.w3.org/1999/xlink" xml:space="preserve" xmlns:serif="http://www.serif.com/" style="fill-rule:evenodd;clip-rule:evenodd;stroke-linejoin:round;stroke-miterlimit:2;">
    <g transform="matrix(1,0,0,1,0,-1)">
        <g id="Page-1">
            <g id="BEIS_black">
                <g id="Group">
                    <g id="Group-3" transform="matrix(1,0,0,1,0,26)">
                        <path id="Fill-1" d="M23.583,13.832C24.371,15.021 25.009,16.464 25.479,18.116C25.956,19.812 26.198,21.637 26.198,23.538C26.198,25.455 25.968,27.299 25.511,29.018C25.076,30.661 24.455,32.114 23.666,33.333C22.945,34.445 22.126,35.284 21.161,35.903C20.365,36.417 19.548,36.655 18.627,36.655L9.998,36.576L9.998,10.451L18.795,10.53C19.648,10.53 20.377,10.754 21.091,11.235C22.027,11.866 22.843,12.715 23.583,13.832ZM23.276,76.768C21.891,77.431 18.904,77.858 15.665,77.858L9.998,77.858L9.998,46.693L15.665,46.693C20.445,46.693 24.549,48.017 26.372,50.145C28.44,52.567 29.55,56.713 29.667,62.493C29.724,64.729 29.531,66.906 29.094,68.959C28.699,70.787 28.009,72.396 27.037,73.741C26.132,74.998 24.9,75.99 23.276,76.768ZM34.938,45.006C33.855,43.35 32.431,41.901 30.689,40.683C31.501,39.697 32.245,38.583 32.91,37.352C33.916,35.499 34.721,33.385 35.302,31.081C35.892,28.762 36.191,26.241 36.191,23.646C36.268,17.93 34.831,12.677 31.917,8.029L31.906,8.01C30.449,5.715 28.684,3.879 26.654,2.551C24.415,1.09 21.509,0.379 17.806,0.379L0,0.231L0,88.009L15.665,88.009C17.172,88.009 20.992,87.936 23.913,87.256C26.708,86.61 29.307,85.312 31.637,83.4C33.974,81.489 35.925,78.789 37.441,75.374C38.932,71.992 39.659,67.745 39.659,62.39C39.659,59.216 39.274,56.134 38.512,53.232C37.733,50.255 36.536,47.499 34.938,45.006Z" style="fill:white;"/>
                    </g>
                    <path id="Fill-4" d="M71.505,72.504L92.008,72.504L92.008,62.574L71.507,62.574L71.589,36.423L97.827,36.423L97.827,26.486L61.607,26.486L61.607,114.017L98.239,114.017L98.239,104.08L71.591,104.08L71.505,72.504" style="fill:white;"/>
                    <g id="Group-9" transform="matrix(1,0,0,1,69,0)">
                        <path id="Fill-5" d="M52.615,114.017L62.609,114.017L62.609,26.486L52.615,26.486L52.615,114.017Z" style="fill:white;"/>
                        <path id="Fill-7" d="M119.232,74.491C117.492,72.227 115.539,70.178 113.421,68.397C111.445,66.737 109.438,65.156 107.449,63.682C105.775,62.398 104.156,61.108 102.578,59.814C101.215,58.699 99.989,57.449 98.932,56.103C97.936,54.83 97.122,53.418 96.511,51.91C95.954,50.518 95.67,48.852 95.67,46.961C95.67,45.603 95.752,44.453 95.916,43.547C96.079,42.64 96.362,41.622 96.767,40.511C97.077,39.648 97.538,38.876 98.207,38.109C99.611,36.457 101.739,35.654 104.71,35.654C106.26,35.654 107.548,35.874 108.532,36.303C109.468,36.72 110.23,37.291 110.839,38.035C111.376,38.7 111.751,39.453 111.983,40.342C112.301,41.557 112.522,42.74 112.639,43.863C112.755,44.977 112.785,46.336 112.723,47.908L112.568,51.982L122.64,51.955L122.763,46.608C122.803,45.443 122.746,44.053 122.594,42.479C122.435,40.825 122.102,39.081 121.599,37.297C121.023,35.245 120.056,33.337 118.694,31.579C115.474,27.548 110.77,25.503 104.71,25.503C98.775,25.503 94.034,27.508 90.715,31.349C89.194,32.978 88.069,34.803 87.373,36.763C86.783,38.414 86.347,39.984 86.079,41.444C85.809,42.953 85.676,44.237 85.676,45.373L85.676,47.072C85.676,52.695 87.464,57.855 91.042,62.472C92.567,64.357 94.289,66.084 96.161,67.6C97.865,68.98 99.651,70.377 101.499,71.775C103.374,73.214 105.217,74.674 107.023,76.143C108.616,77.442 110.071,78.939 111.343,80.589C112.55,82.16 113.538,83.995 114.28,86.056C115.008,88.065 115.376,90.51 115.376,93.323C115.376,95.615 115.054,97.526 114.421,99.001C113.816,100.409 113.028,101.54 112.094,102.352C111.098,103.212 110.013,103.82 108.779,104.209C106.335,104.985 103.975,105.081 101.054,104.361C100.025,104.108 99.073,103.594 98.139,102.786C97.215,101.991 96.403,100.765 95.724,99.151C95.013,97.451 94.653,95.083 94.653,92.115L94.653,88.189L84.659,88.189L84.659,92.115C84.659,95.577 85.15,98.888 86.114,101.946C87.158,105.284 88.799,108.025 90.99,110.093L91.042,110.139C93.293,112.192 95.784,113.553 98.446,114.185C100.734,114.726 102.84,115 104.71,115C110.157,115 114.805,113.344 118.552,110.055C123.076,106.005 125.37,100.375 125.37,93.323C125.37,86.19 123.309,79.859 119.232,74.491" style="fill:white;"/>
                        <path id="Fill-8" d="M24.994,6.062L21.693,0.971L0.678,14.597L3.979,19.688L24.994,6.062" style="fill:white;"/>
                    </g>
                </g>
            </g>
        </g>
    </g>
</svg>
