<?xml version="1.0" encoding="UTF-8" standalone="no"?>
<!DOCTYPE svg PUBLIC "-//W3C//DTD SVG 1.1//EN" "http://www.w3.org/Graphics/SVG/1.1/DTD/svg11.dtd">
<svg width="100%" height="100%" viewBox="0 0 359 49" version="1.1" xmlns="http://www.w3.org/2000/svg" xmlns:xlink="http://www.w3.org/1999/xlink" xml:space="preserve" xmlns:serif="http://www.serif.com/" style="fill-rule:evenodd;clip-rule:evenodd;stroke-linejoin:round;stroke-miterlimit:2;">
    <g transform="matrix(1.33333,0,0,-1.33333,-1858.85,1101.03)">
        <g id="A9R18vxcoc_kd2qov_2i0">
            <g id="g12">
                <g id="g14">
                    <g id="g20" transform="matrix(1,0,0,1,1425.88,796.804)">
                        <path id="path22" d="M0,0C0.4,-0.406 0.41,-1.054 0.022,-1.471C-0.852,-2.412 -1.786,-3.262 -2.751,-4L-2.752,-4C-3.725,-4.742 -4.785,-5.391 -5.901,-5.934C-7.037,-6.486 -8.291,-6.907 -9.63,-7.188C-10.961,-7.466 -12.442,-7.608 -14.032,-7.608C-16.564,-7.608 -18.94,-7.138 -21.091,-6.211C-23.236,-5.289 -25.119,-4.007 -26.689,-2.402C-28.258,-0.801 -29.506,1.115 -30.396,3.291C-31.286,5.468 -31.738,7.836 -31.738,10.332C-31.738,12.795 -31.295,15.146 -30.422,17.319C-29.549,19.494 -28.303,21.427 -26.717,23.063C-25.129,24.7 -23.222,26.005 -21.046,26.945C-18.864,27.887 -16.426,28.365 -13.798,28.365C-12.241,28.365 -10.794,28.232 -9.497,27.969C-8.198,27.706 -6.984,27.329 -5.891,26.848C-4.802,26.37 -3.779,25.791 -2.849,25.128C-1.935,24.474 -1.062,23.75 -0.254,22.973C0.155,22.58 0.184,21.936 -0.187,21.508L-3.88,17.254C-4.068,17.037 -4.337,16.905 -4.625,16.89C-4.913,16.873 -5.195,16.976 -5.406,17.173C-6.637,18.315 -7.955,19.25 -9.327,19.95C-10.634,20.618 -12.154,20.956 -13.845,20.956C-15.243,20.956 -16.548,20.681 -17.725,20.141C-18.917,19.595 -19.96,18.843 -20.825,17.908C-21.694,16.969 -22.377,15.851 -22.855,14.585C-23.337,13.309 -23.581,11.91 -23.581,10.425C-23.581,8.939 -23.337,7.53 -22.853,6.24C-22.374,4.955 -21.69,3.82 -20.82,2.867C-19.955,1.919 -18.915,1.162 -17.725,0.616C-16.548,0.076 -15.241,-0.198 -13.845,-0.198C-12.036,-0.198 -10.474,0.145 -9.203,0.822C-7.858,1.539 -6.502,2.531 -5.174,3.769C-4.754,4.163 -4.096,4.149 -3.693,3.74L0,0Z" style="fill:white;fill-rule:nonzero;"/>
                    </g>
                    <g id="g24" transform="matrix(1,0,0,1,1447.74,805.774)">
                        <path id="path26" d="M0,0C-0.324,0.838 -0.778,1.583 -1.351,2.214C-1.919,2.837 -2.601,3.334 -3.379,3.692C-4.149,4.046 -5.021,4.226 -5.976,4.226C-6.932,4.226 -7.806,4.046 -8.575,3.693C-9.354,3.334 -10.029,2.844 -10.579,2.237C-11.132,1.626 -11.561,0.905 -11.852,0.093C-12.15,-0.74 -12.299,-1.648 -12.299,-2.611C-12.299,-3.568 -12.136,-4.488 -11.812,-5.343C-11.49,-6.192 -11.04,-6.932 -10.471,-7.544C-9.904,-8.155 -9.219,-8.648 -8.436,-9.008C-7.667,-9.363 -6.808,-9.541 -5.883,-9.541C-4.898,-9.541 -4.008,-9.363 -3.239,-9.008C-2.459,-8.649 -1.786,-8.16 -1.237,-7.554C-0.682,-6.943 -0.254,-6.221 0.037,-5.408C0.335,-4.577 0.486,-3.667 0.486,-2.704C0.486,-1.751 0.323,-0.841 0,0M7.25,2.802C7.958,1.121 8.315,-0.701 8.315,-2.611C8.315,-4.524 7.948,-6.348 7.224,-8.033C6.504,-9.709 5.499,-11.197 4.241,-12.456C2.98,-13.716 1.459,-14.729 -0.28,-15.464C-2.027,-16.203 -3.944,-16.577 -5.977,-16.577C-7.979,-16.577 -9.87,-16.211 -11.599,-15.49C-13.324,-14.769 -14.84,-13.765 -16.102,-12.502C-17.362,-11.242 -18.358,-9.76 -19.063,-8.098C-19.771,-6.432 -20.13,-4.617 -20.13,-2.704C-20.13,-0.792 -19.763,1.039 -19.04,2.737C-18.318,4.43 -17.315,5.927 -16.055,7.187C-14.796,8.446 -13.283,9.458 -11.561,10.194C-9.829,10.933 -7.919,11.308 -5.883,11.308C-3.851,11.308 -1.945,10.942 -0.215,10.221C1.511,9.5 3.027,8.494 4.287,7.234C5.549,5.973 6.547,4.481 7.25,2.802" style="fill:white;fill-rule:nonzero;"/>
                    </g>
                    <g id="g28" transform="matrix(1,0,0,1,1473.31,805.524)">
                        <path id="path30" d="M0,0C-1.218,0.564 -4.11,1.545 -5.843,2.115C-7.628,2.702 -7.208,3.948 -6.821,4.317C-6.422,4.699 -5.887,4.907 -4.9,4.907C-3.994,4.907 -2.936,4.657 -1.839,4.278C-0.702,3.883 0.441,3.341 1.558,2.667C1.804,2.517 2.102,2.474 2.38,2.548C2.659,2.622 2.896,2.807 3.037,3.057L5.282,7.079C5.551,7.562 5.404,8.173 4.942,8.481C3.555,9.406 2.001,10.141 0.323,10.668C-2.705,11.617 -5.819,11.745 -8.477,10.901C-9.676,10.517 -10.739,9.949 -11.634,9.212C-12.545,8.461 -13.268,7.539 -13.785,6.471C-14.304,5.394 -14.569,4.013 -14.569,2.875C-14.569,0.267 -13.333,-2.672 -9.52,-4.274C-8.427,-4.733 -5.223,-5.745 -4.55,-5.952C-3.731,-6.204 -1.339,-6.83 -1.339,-8.017C-1.339,-9.307 -3.127,-9.619 -4.109,-9.619C-5.255,-9.619 -6.474,-9.382 -7.736,-8.914C-9.024,-8.436 -10.311,-7.722 -11.562,-6.79C-11.796,-6.615 -12.094,-6.545 -12.38,-6.596C-12.668,-6.647 -12.923,-6.815 -13.084,-7.059L-15.609,-10.892C-15.914,-11.354 -15.812,-11.974 -15.375,-12.314C-13.73,-13.598 -11.919,-14.582 -9.992,-15.241C-8.065,-15.899 -6.133,-16.233 -4.249,-16.233C-2.876,-16.233 -1.565,-16.053 -0.353,-15.7C0.893,-15.337 1.995,-14.788 2.922,-14.071C3.876,-13.332 4.632,-12.396 5.169,-11.287C5.705,-10.178 5.976,-8.875 5.976,-7.409C5.976,-7.409 5.958,-5.451 5.033,-3.868C3.875,-1.886 1.299,-0.602 0,0" style="fill:white;fill-rule:nonzero;"/>
                    </g>
                    <g id="g32" transform="matrix(1,0,0,1,1497.87,816.567)">
                        <path id="path34" d="M0,0L-5.573,0L-5.573,5.715C-5.573,6.303 -6.049,6.779 -6.638,6.779L-12.34,6.779C-12.928,6.779 -13.404,6.303 -13.404,5.715L-13.404,0L-15.472,0C-16.061,0 -16.536,-0.477 -16.536,-1.064L-16.536,-5.879C-16.536,-6.466 -16.061,-6.941 -15.472,-6.941L-13.404,-6.941L-13.404,-18.904C-13.404,-20.403 -13.207,-21.687 -12.818,-22.722C-12.411,-23.805 -11.813,-24.698 -11.037,-25.376C-10.276,-26.039 -9.369,-26.524 -8.344,-26.815C-7.372,-27.091 -6.31,-27.231 -5.188,-27.231C-4.044,-27.231 -3.008,-27.109 -2.107,-26.866C-1.215,-26.627 -0.363,-26.279 0.429,-25.83C0.765,-25.642 0.971,-25.289 0.971,-24.905L0.971,-20.277C0.971,-19.908 0.78,-19.566 0.465,-19.372C0.153,-19.18 -0.238,-19.162 -0.57,-19.325C-1.536,-19.81 -2.554,-20.055 -3.599,-20.055C-4.287,-20.055 -4.801,-19.904 -5.126,-19.606C-5.497,-19.268 -5.573,-18.559 -5.573,-18.023L-5.573,-6.941L0,-6.941C0.589,-6.941 1.064,-6.466 1.064,-5.879L1.064,-1.064C1.064,-0.477 0.589,0 0,0" style="fill:white;fill-rule:nonzero;"/>
                    </g>
                    <g id="g36" transform="matrix(1,0,0,1,1592.5,816.567)">
                        <path id="path38" d="M0,0L-5.574,0L-5.574,5.715C-5.574,6.303 -6.051,6.779 -6.638,6.779L-12.342,6.779C-12.928,6.779 -13.406,6.303 -13.406,5.715L-13.406,0L-24.787,0L-24.787,5.715C-24.787,6.303 -25.264,6.779 -25.851,6.779L-31.554,6.779C-32.141,6.779 -32.618,6.303 -32.618,5.715L-32.618,0L-34.687,0C-35.275,0 -35.75,-0.477 -35.75,-1.064L-35.75,-5.879C-35.75,-6.466 -35.275,-6.941 -34.687,-6.941L-32.618,-6.941L-32.618,-18.904C-32.618,-20.403 -32.42,-21.687 -32.032,-22.722C-31.627,-23.805 -31.027,-24.697 -30.25,-25.374C-29.49,-26.039 -28.584,-26.524 -27.556,-26.815C-26.586,-27.091 -25.524,-27.231 -24.402,-27.231C-23.257,-27.231 -22.22,-27.109 -21.321,-26.866C-20.429,-26.627 -19.576,-26.279 -18.784,-25.83C-18.449,-25.642 -18.244,-25.289 -18.244,-24.905L-18.244,-20.277C-18.244,-19.908 -18.434,-19.566 -18.748,-19.372C-19.061,-19.18 -19.452,-19.162 -19.783,-19.325C-20.749,-19.81 -21.768,-20.055 -22.813,-20.055C-23.501,-20.055 -24.014,-19.904 -24.34,-19.606C-24.71,-19.268 -24.787,-18.559 -24.787,-18.023L-24.787,-6.941L-13.406,-6.941L-13.406,-18.904C-13.406,-20.403 -13.207,-21.687 -12.819,-22.722C-12.411,-23.805 -11.814,-24.698 -11.037,-25.376C-10.278,-26.039 -9.37,-26.524 -8.344,-26.815C-7.372,-27.091 -6.311,-27.231 -5.189,-27.231C-4.044,-27.231 -3.008,-27.109 -2.108,-26.866C-1.217,-26.627 -0.363,-26.279 0.429,-25.83C0.763,-25.642 0.969,-25.289 0.969,-24.905L0.969,-20.277C0.969,-19.908 0.778,-19.566 0.465,-19.372C0.153,-19.18 -0.238,-19.162 -0.57,-19.325C-1.536,-19.81 -2.556,-20.055 -3.599,-20.055C-4.288,-20.055 -4.801,-19.904 -5.127,-19.606C-5.497,-19.268 -5.574,-18.559 -5.574,-18.023L-5.574,-6.941L0,-6.941C0.587,-6.941 1.064,-6.466 1.064,-5.879L1.064,-1.064C1.064,-0.477 0.587,0 0,0" style="fill:white;fill-rule:nonzero;"/>
                    </g>
                    <g id="g40" transform="matrix(1,0,0,1,1522.42,799.011)">
                        <path id="path42" d="M0,0C-0.417,0.411 -1.084,0.409 -1.499,-0.006C-2.332,-0.837 -3.058,-1.42 -4.053,-1.998C-4.894,-2.486 -6.003,-2.779 -7.152,-2.779C-8.082,-2.779 -8.936,-2.6 -9.695,-2.247C-10.466,-1.888 -11.14,-1.398 -11.695,-0.788C-12.255,-0.175 -12.694,0.557 -13.003,1.389C-13.317,2.232 -13.474,3.161 -13.474,4.151C-13.474,5.109 -13.317,6.013 -13.004,6.839C-12.693,7.666 -12.264,8.399 -11.725,9.016C-11.2,9.622 -10.56,10.108 -9.821,10.464C-9.099,10.812 -8.294,10.989 -7.432,10.989C-6.198,10.989 -5.241,10.702 -4.373,10.252C-3.361,9.728 -2.736,9.228 -1.842,8.28C-1.624,8.05 -1.307,7.908 -1.016,7.904C-0.724,7.907 -0.446,8.03 -0.246,8.245L3.259,12.031C3.633,12.435 3.638,13.057 3.267,13.466C2.032,14.834 0.567,15.952 -1.087,16.787C-2.772,17.639 -4.891,18.07 -7.384,18.07C-9.36,18.07 -11.226,17.695 -12.929,16.954C-14.626,16.215 -16.113,15.192 -17.352,13.913C-18.586,12.637 -19.564,11.141 -20.256,9.467C-20.951,7.785 -21.303,5.966 -21.303,4.059C-21.303,2.148 -20.951,0.335 -20.255,-1.33C-19.561,-2.992 -18.583,-4.473 -17.347,-5.732C-16.108,-6.995 -14.627,-8.001 -12.949,-8.723C-11.262,-9.447 -9.406,-9.814 -7.432,-9.814C-4.864,-9.814 -2.693,-9.338 -0.982,-8.397C0.676,-7.486 2.171,-6.285 3.462,-4.827C3.837,-4.405 3.814,-3.762 3.413,-3.366L0,0Z" style="fill:white;fill-rule:nonzero;"/>
                    </g>
                    <g id="g44" transform="matrix(1,0,0,1,1552.47,816.567)">
                        <path id="path46" d="M0,0L-5.703,0C-6.29,0 -6.766,-0.475 -6.766,-1.063L-6.766,-14.962C-6.766,-16.621 -7.172,-17.854 -8.003,-18.73C-8.821,-19.59 -9.873,-20.008 -11.219,-20.008C-12.577,-20.008 -13.582,-19.615 -14.288,-18.809C-15.021,-17.972 -15.393,-16.708 -15.393,-15.055L-15.393,-1.063C-15.393,-0.475 -15.867,0 -16.455,0L-22.159,0C-22.747,0 -23.222,-0.475 -23.222,-1.063L-23.222,-16.771C-23.222,-19.925 -22.362,-22.49 -20.67,-24.395C-18.943,-26.339 -16.496,-27.323 -13.395,-27.323C-11.283,-27.323 -9.506,-26.821 -8.115,-25.829C-7.639,-25.488 -7.19,-25.121 -6.766,-24.73L-6.766,-25.746C-6.766,-26.333 -6.29,-26.81 -5.703,-26.81L0,-26.81C0.588,-26.81 1.063,-26.333 1.063,-25.746L1.063,-1.063C1.063,-0.475 0.588,0 0,0" style="fill:white;fill-rule:nonzero;"/>
                    </g>
                    <g id="g48" transform="matrix(1,0,0,1,1613.73,805.956)">
                        <path id="path50" d="M0,0C-0.09,0.378 -0.206,0.745 -0.343,1.097C-0.605,1.763 -0.959,2.344 -1.398,2.822C-1.831,3.293 -2.355,3.674 -2.959,3.956C-3.545,4.232 -4.235,4.37 -5.009,4.37C-6.462,4.37 -7.625,3.89 -8.561,2.902C-9.307,2.117 -9.825,1.16 -10.129,0L0,0ZM7.134,2.147C7.662,0.43 7.929,-1.389 7.929,-3.261C7.929,-3.534 7.92,-3.805 7.902,-4.075C7.886,-4.343 7.862,-4.622 7.829,-4.92C7.77,-5.459 7.315,-5.868 6.772,-5.868L-10.023,-5.868C-9.84,-6.713 -9.07,-7.952 -8.25,-8.641L-8.25,-8.642C-7.16,-9.559 -5.855,-10.005 -4.261,-10.005C-3.026,-10.005 -1.955,-9.789 -1.077,-9.364C-0.156,-8.918 0.773,-8.243 1.684,-7.36C2.084,-6.972 2.715,-6.959 3.13,-7.328L6.449,-10.273C6.881,-10.655 6.929,-11.313 6.556,-11.753C5.284,-13.258 3.753,-14.478 1.999,-15.38C0.219,-16.296 -1.919,-16.76 -4.354,-16.76C-6.258,-16.76 -8.067,-16.419 -9.731,-15.747C-11.397,-15.074 -12.867,-14.115 -14.1,-12.9C-15.333,-11.684 -16.316,-10.206 -17.023,-8.508C-17.728,-6.811 -18.085,-4.905 -18.085,-2.841C-18.085,-0.942 -17.764,0.867 -17.128,2.539C-16.491,4.217 -15.578,5.709 -14.415,6.972C-13.252,8.237 -11.859,9.255 -10.274,9.996C-8.673,10.745 -6.885,11.125 -4.962,11.125C-2.847,11.125 -0.953,10.727 0.668,9.943C2.284,9.16 3.648,8.088 4.725,6.756C5.786,5.443 6.597,3.891 7.134,2.147" style="fill:white;fill-rule:nonzero;"/>
                    </g>
                    <g id="g52" transform="matrix(1,0,0,1,1640.43,817.034)">
                        <path id="path54" d="M0,0C-2.432,0.104 -4.492,-0.49 -6.123,-1.768C-6.705,-2.223 -7.239,-2.736 -7.723,-3.304L-7.723,-1.529C-7.723,-0.942 -8.2,-0.467 -8.787,-0.467L-14.491,-0.467C-15.078,-0.467 -15.555,-0.942 -15.555,-1.529L-15.555,-26.213C-15.555,-26.8 -15.078,-27.276 -14.491,-27.276L-8.787,-27.276C-8.2,-27.276 -7.723,-26.8 -7.723,-26.213L-7.723,-16.817C-7.723,-10.745 -4.895,-8.109 -0.373,-8.109L-0.046,-8.109C0.542,-8.109 1.017,-7.634 1.017,-7.047L1.017,-1.062C1.017,-0.493 0.569,-0.025 0,0" style="fill:white;fill-rule:nonzero;"/>
                    </g>
                    <g id="g56" transform="matrix(1,0,0,1,1663.2,809.7)">
                        <path id="path58" d="M0,0C0.019,-0.14 -0.018,-0.283 -0.103,-0.395C-2.048,-2.942 -5.108,-4.463 -8.287,-4.463C-11.184,-4.463 -13.961,-3.225 -15.911,-1.064C-17.883,1.123 -18.803,3.946 -18.5,6.886C-18.023,11.499 -14.347,15.318 -9.757,15.967C-6.072,16.49 -2.374,14.976 -0.109,12.017C0.068,11.784 0.025,11.452 -0.207,11.273L-2.28,9.666C-2.391,9.58 -2.535,9.541 -2.673,9.559C-2.815,9.577 -2.943,9.651 -3.028,9.764C-4.498,11.687 -6.899,12.673 -9.29,12.334C-12.264,11.913 -14.647,9.437 -14.956,6.445C-15.153,4.538 -14.557,2.707 -13.277,1.288C-12.012,-0.114 -10.21,-0.917 -8.332,-0.917C-6.241,-0.917 -4.24,0.093 -2.979,1.783C-2.893,1.896 -2.767,1.971 -2.628,1.992C-2.486,2.01 -2.344,1.974 -2.231,1.888L-0.204,0.352C-0.093,0.266 -0.019,0.14 0,0" style="fill:white;fill-rule:nonzero;"/>
                    </g>
                    <g id="g60" transform="matrix(1,0,0,1,1659.39,812.348)">
                        <path id="path62" d="M0,0C-1.023,-1.436 -2.681,-2.294 -4.434,-2.294C-5.965,-2.294 -7.435,-1.639 -8.465,-0.497C-9.493,0.643 -9.992,2.175 -9.834,3.707C-9.582,6.146 -7.638,8.166 -5.21,8.509C-3.286,8.782 -1.406,8.037 -0.187,6.517C-0.087,6.39 -0.04,6.227 -0.059,6.065C-0.078,5.902 -0.161,5.755 -0.29,5.654L-1.92,4.393C-2.183,4.189 -2.562,4.233 -2.77,4.492C-3.181,5.006 -3.788,5.301 -4.434,5.301C-5.597,5.301 -6.508,4.35 -6.508,3.135C-6.508,1.921 -5.597,0.97 -4.434,0.97C-3.72,0.97 -3.054,1.333 -2.652,1.941C-2.559,2.081 -2.413,2.176 -2.245,2.204C-2.081,2.233 -1.91,2.19 -1.777,2.089L-0.127,0.838C0.135,0.64 0.191,0.267 0,0" style="fill:white;fill-rule:nonzero;"/>
                    </g>
                </g>
            </g>
        </g>
    </g>
</svg>
