<?xml version="1.0" encoding="utf-8"?>
<!-- Generator: Adobe Illustrator 26.5.0, SVG Export Plug-In . SVG Version: 6.00 Build 0)  -->
<svg version="1.1" id="Lager_1" xmlns="http://www.w3.org/2000/svg" xmlns:xlink="http://www.w3.org/1999/xlink" x="0px" y="0px"
	 viewBox="0 0 550 111.79" style="enable-background:new 0 0 550 111.79;" xml:space="preserve">
<g>
	<path d="M537.53,24.02c-6.6,0-11.97-5.37-11.97-11.97s5.37-11.97,11.97-11.97c6.6,0,11.97,5.37,11.97,11.97
		S544.13,24.02,537.53,24.02z M537.53,6.07c-3.3,0-5.99,2.69-5.99,5.99s2.69,5.99,5.99,5.99s5.99-2.69,5.99-5.99
		S540.85,6.07,537.53,6.07z"/>
	<g>
		<path d="M34.22,90.91l0.2-4.38c-2.84,3.37-7.02,5.09-11.92,5.09c-11.1,0-22-9.28-22-26.98c0-17.82,10.9-27.4,22-27.4
			c4.99,0,8.45,1.12,11.41,3.88V19.73h11.71v71.19C45.62,90.91,34.22,90.91,34.22,90.91z M33.91,52.63
			c-2.96-3.47-5.91-4.99-9.78-4.99c-6.62,0-12.02,5.6-12.02,17.01c0,11,5.4,16.4,12.02,16.4c3.57,0,6.41-1.52,9.78-4.79V52.63z"/>
		<path d="M93.3,90.91l0.2-4.49c-3.27,3.57-8.77,5.09-13.54,5.09c-8.75,0-17.42-5.91-17.42-15.08c0-12.32,13.54-15.89,26.57-18.13
			l4.08-0.71c-0.2-7.13-3.35-10.19-9.28-10.19c-4.28,0-8.04,1.93-11,5.81l-8.24-6.62c4.38-5.5,11.71-9.38,19.24-9.38
			c13.13,0,20.67,7.43,20.67,19.14V90.9H93.3V90.91z M93.1,75.83v-9.28c-0.61,0.1-2.84,0.51-8.14,1.73
			c-4.28,1.02-10.29,2.54-10.29,7.23c0,4.38,3.66,6.21,7.43,6.21C86.08,81.74,91.07,79.51,93.1,75.83z"/>
		<path d="M146.06,111.48c-9.36,0-25.35-2.95-25.35-14.96c0-5.2,3.77-8.65,8.04-10.6c-2.66-1.42-4.18-3.88-4.18-7.02
			c0-4.79,3.77-7.84,8.04-8.75c-5.7-2.66-8.75-7.63-8.75-13.95c0-13.13,11.51-18.23,23.02-18.23h23.32v10.29h-7.33
			c1.42,2.44,2.23,5.09,2.23,7.94c0,8.45-6.01,14.45-13.54,16.91c-1.62,0.51-3.88,0.71-6.01,0.91c-4.69,0.51-9.28,1.02-9.28,4.08
			c0,2.96,5.3,3.67,11.71,4.38c10.09,1.12,22.71,2.44,22.71,14.05C170.7,108.64,155.42,111.48,146.06,111.48z M141.47,90.41
			L138,90.1c-2.96,1.02-6.11,2.74-6.11,6.11c0,4.79,10.9,5.4,14.27,5.4c3.35,0,13.13-0.61,13.13-5.4
			C159.3,91.63,147.99,91.02,141.47,90.41z M144.44,47.74c-5.09,0-8.95,3.17-8.95,8.46c0,5.4,3.77,8.34,8.95,8.34
			c5.2,0,9.06-2.96,9.06-8.34C153.49,50.89,149.51,47.74,144.44,47.74z"/>
		<path d="M202.07,91.73c-10.49,0-17.92-6.52-20.67-9.28l8.55-7.13c3.35,3.37,7.63,5.91,12.32,5.91c5.2,0,7.84-2.44,7.84-5.5
			c0-3.37-4.49-4.99-9.78-7.02c-7.53-2.86-16.5-6.41-16.5-16.2c0-9.06,7.63-15.37,19.24-15.37c9.99,0,17.52,7.02,17.52,7.02
			l-7.63,7.33c0,0-4.49-3.98-9.88-3.98c-5.2,0-7.53,1.93-7.53,4.79c0,3.17,4.28,4.89,9.36,6.72c7.53,2.84,16.81,6.31,16.81,16.6
			C221.72,86.33,212.05,91.73,202.07,91.73z"/>
		<path d="M296.99,90.91V59.55c0-5.91-1.22-11.81-7.94-11.81c-3.47,0-6.82,1.93-8.45,4.59v38.59h-11.81V59.55
			c0-5.91-1.22-11.81-7.94-11.81c-3.47,0-6.82,1.93-8.45,4.59v38.59h-11.81V37.95H252l-0.2,3.77c3.27-2.74,7.53-4.69,12.12-4.69
			c6.52,0,10.7,2.64,13.24,6.31c3.86-3.98,8.65-6.31,14.86-6.31c13.64,0,16.81,12.42,16.81,23.12v30.75
			C308.82,90.91,296.99,90.91,296.99,90.91z"/>
		<path d="M338.52,66.88c0.1,9.06,5.5,14.25,12.12,14.25c3.88,0,6.52-0.91,10.19-5.5l9.78,6.21c-5.91,6.82-11.92,9.88-19.96,9.88
			c-13.34,0-23.63-9.28-23.63-26.98c0-17.82,10.7-27.5,22.92-27.5c12.73,0,22.61,9.17,22.61,26.78v2.86
			C372.56,66.88,338.52,66.88,338.52,66.88z M339.15,57.2h21.28c-1.32-6.82-5.09-10.19-10.49-10.19S340.57,50.17,339.15,57.2z"/>
		<path d="M403.19,94.99c0,9.36-4.69,16.71-16.5,16.71c-4.49,0-8.04-1.52-11.2-4.08l7.74-7.23c0.91,0.61,2.03,1.02,3.17,1.02
			c4.59,0,5.09-3.57,5.09-6.31V37.95h11.71V94.99z"/>
		<path d="M452.79,90.91l0.2-4.49c-3.27,3.57-8.77,5.09-13.54,5.09c-8.77,0-17.42-5.91-17.42-15.08c0-12.32,13.54-15.89,26.57-18.13
			l4.08-0.71c-0.2-7.13-3.37-10.19-9.28-10.19c-4.28,0-8.04,1.93-11,5.81l-8.24-6.62c4.38-5.5,11.71-9.38,19.24-9.38
			c13.13,0,20.67,7.43,20.67,19.14V90.9h-11.29V90.91z M452.58,75.83v-9.28c-0.61,0.1-2.84,0.51-8.14,1.73
			c-4.28,1.02-10.29,2.54-10.29,7.23c0,4.38,3.67,6.21,7.43,6.21C445.56,81.74,450.55,79.51,452.58,75.83z"/>
		<path d="M516.75,90.91V59.86c0-5.91-1.22-12.52-9.16-12.52c-4.08,0-8.04,2.13-9.87,5.09v38.49h-11.81V37.95h11.31l-0.3,4.59
			c3.57-3.15,8.55-5.5,13.95-5.5c14.45,0,17.72,12.12,17.72,23.02v30.86H516.75z"/>
	</g>
</g>
</svg>
