<?xml version="1.0" encoding="UTF-8" standalone="no"?>
<!DOCTYPE svg PUBLIC "-//W3C//DTD SVG 1.1//EN" "http://www.w3.org/Graphics/SVG/1.1/DTD/svg11.dtd">
<svg width="100%" height="100%" viewBox="0 0 258 42" version="1.1" xmlns="http://www.w3.org/2000/svg" xmlns:xlink="http://www.w3.org/1999/xlink" xml:space="preserve" xmlns:serif="http://www.serif.com/" style="fill-rule:evenodd;clip-rule:evenodd;stroke-linejoin:round;stroke-miterlimit:2;">
    <g transform="matrix(1.25,0,0,-1.25,-204.054,146.959)">
        <g id="A">
            <g id="g4218">
                <path id="path28" d="M255.782,97.953C255.397,103.111 251.735,104.146 249.473,104.146C246.545,104.146 243.149,102.213 242.686,97.953L255.782,97.953ZM242.452,95.024C242.496,90.507 245.709,87.557 250.063,87.557C252.816,87.557 255.23,89.25 255.955,90.282L258.911,88.823C257.053,85.948 253.464,84.329 249.83,84.329C244.249,84.329 239.042,88.077 239.042,96.114C239.042,101.868 242.766,107.395 249.262,107.395C254.834,107.395 259.673,103.928 259.399,95.026" style="fill:white;fill-rule:nonzero;"/>
                <path id="path30" d="M195.895,89.558L195.896,95.689C192.601,95.531 185.347,94.795 185.624,90.217C185.67,89.459 186.387,87.197 189.423,87.254C191.462,87.293 194.218,88.214 195.895,89.558M199.265,101.34L199.263,84.717L195.887,84.717L195.888,86.38C194.459,85.492 187.918,82.404 184.134,85.916C182.98,86.989 182.301,88.503 182.301,90.201C182.301,92.52 183.32,94.559 185.744,96.083C188.053,97.533 192.577,98.297 195.897,98.427L195.897,100.598C195.897,102.223 195.343,104.373 191.38,104.373C189.045,104.373 187.01,103.347 185.276,102.415L183.994,105.026C187.661,107.232 190.501,107.363 191.742,107.363C195.139,107.363 199.265,106.053 199.265,101.34" style="fill:white;fill-rule:nonzero;"/>
                <g id="g32" transform="matrix(0.1,0,0,0.1,0,0)">
                    <g>
                        <g id="g34" transform="matrix(8,0,0,-8,1632.43,1175.67)">
                        </g>
                    </g>
                </g>
                <g id="path40" transform="matrix(0.1,0,0,0.1,0,0)">
                    <path d="M3654.5,979.5C3650.65,1031.08 3614.03,1041.41 3591.4,1041.41C3562.13,1041.41 3528.15,1022.09 3523.54,979.5L3654.5,979.5ZM3521.22,950.199C3521.63,905.02 3553.77,875.52 3597.31,875.52C3624.85,875.52 3648.98,892.441 3656.22,902.801L3685.78,888.199C3667.2,859.422 3628.19,843.262 3594.98,843.262C3539.18,843.262 3487.11,880.738 3487.11,961.102C3487.11,1018.65 3524.33,1073.91 3589.31,1073.91C3645.02,1073.91 3693.42,1039.23 3690.67,950.23" style="fill:white;fill-rule:nonzero;"/>
                </g>
                <path id="path42" d="M231.594,108.14C231.594,112.521 228.219,114.404 224.661,114.404L216.177,114.404L216.177,101.875L224.661,101.875C230.562,101.875 231.594,105.898 231.594,108.14M233.623,84.726L228.673,96.004C228.319,96.704 227.903,97.889 226.809,98.396C226.519,98.529 225.807,98.713 224.611,98.713L216.177,98.713L216.177,84.722L212.6,84.722L212.601,117.566L224.379,117.566C235.482,117.566 235.261,109.334 235.261,108.151C235.261,104.61 233.352,101.124 230.114,99.919C230.548,99.588 231.112,99.356 232.267,96.719L237.516,84.724" style="fill:white;fill-rule:nonzero;"/>
                <path id="path44" d="M321.437,87.62C324.718,87.62 326.647,89.555 327.746,91.435L327.759,106.964L331.103,106.964L331.103,84.734L327.759,84.734L327.759,87.092C326.671,85.952 324.741,84.319 321.254,84.319C317.308,84.319 315.24,86.682 315.24,86.682C313.63,88.271 312.845,90.52 312.845,93.304L312.846,106.964L316.192,106.964L316.192,93.367C316.192,91.189 317.158,87.62 321.437,87.62" style="fill:white;fill-rule:nonzero;"/>
                <path id="path46" d="M347.307,84.765C345.166,84.254 343.538,84.31 343.538,84.31C340.568,84.31 338.111,86.037 338.111,89.36L338.111,104.023L333.764,104.023L333.764,106.955L338.111,106.955L338.111,113.966L341.456,113.969L341.456,106.954L346.621,106.954L346.621,104.023L341.456,104.023L341.456,92.003C341.456,92.003 341.459,90.152 341.565,89.565C341.929,87.537 343.231,87.184 346.695,87.864" style="fill:white;fill-rule:nonzero;"/>
                <path id="path48" d="M279.537,102.342C279.537,102.342 277.17,104.066 273.922,104.066C267.638,104.066 266.068,98.724 266.068,96.023C266.068,93.029 268.004,87.634 274.346,87.634C276.672,87.634 278.531,88.479 279.537,89.281L279.537,102.342ZM273.846,107.372C277.141,107.372 279.537,105.995 279.537,105.995L279.537,117.442L282.904,117.442L282.904,84.724L279.537,84.724L279.537,85.912C279.537,85.912 277.663,84.309 273.869,84.309C268.397,84.309 262.603,88.286 262.603,95.854C262.603,103.998 268.797,107.372 273.846,107.372" style="fill:white;fill-rule:nonzero;"/>
                <path id="path50" d="M166.817,117.567L166.82,87.905L180.175,87.905L180.175,84.725L163.245,84.725L163.243,117.567" style="fill:white;fill-rule:nonzero;"/>
                <path id="path52" d="M292.415,101.732C290.916,100.161 290.172,98.229 290.166,95.815C290.172,93.418 290.914,91.496 292.415,89.932C293.925,88.374 295.743,87.615 298.005,87.606C300.253,87.615 302.059,88.372 303.561,89.932C305.054,91.496 305.796,93.417 305.801,95.815C305.796,98.197 305.05,100.121 303.549,101.71C302.036,103.293 300.235,104.062 298.006,104.068C295.744,104.062 293.925,103.297 292.415,101.732M286.683,95.836C286.683,99.086 287.775,101.866 289.932,104.055C292.077,106.251 294.806,107.369 297.983,107.369C297.983,107.369 302.648,107.655 306.06,104.054C308.201,101.862 309.282,99.086 309.28,95.838L309.282,95.795C309.283,92.56 308.2,89.792 306.06,87.609C303.928,85.422 301.208,84.307 298.03,84.307L297.983,84.307C294.806,84.307 292.078,85.422 289.932,87.606C287.775,89.787 286.681,92.558 286.683,95.794" style="fill:white;fill-rule:nonzero;"/>
            </g>
        </g>
    </g>
</svg>
