<svg xmlns="http://www.w3.org/2000/svg" width="1518" height="354" baseProfile="tiny-ps" version="1.2"><style></style><path id="Layer" d="M525.82 9.72c18.94 0 32.62 10.51 32.62 29.44 0 10.51-4.21 24.18-11.57 41.01l-81.04 199.77-91.55-207.13c-7.37-15.78-10.53-27.34-10.53-38.91 0-12.61 10.53-24.18 33.68-24.18V.26H262.72v9.46c27.37 0 35.78 9.46 51.57 46.26l129.44 297.56h7.37l121.02-294.4c14.74-34.7 33.68-50.47 48.41-50.47V.26h-93.66v9.46h-1.05ZM.68.26v9.46c37.89 0 46.31 9.46 46.31 41.01v231.31c0 49.42-7.37 54.67-46.31 54.67v9.47h265.2l29.47-93.58-7.37-2.1c-28.41 70.44-48.41 80.96-108.39 80.96h-36.84c-46.3 0-48.41-1.05-48.41-57.83V63.34c0-43.11 8.42-52.57 54.73-52.57V.26H.68Zm1097.63 9.46V.26h-86.29L885.73 273.63 754.19.26h-88.4v9.46c36.83 0 45.25 11.57 45.25 45.21v226.06c0 49.42-9.47 54.67-45.25 54.67v9.47h107.34v-9.47c-36.83 0-45.25-5.25-45.25-54.67V54.93l133.65 290.2h8.42l132.6-290.2v226.06c0 49.42-7.37 54.67-48.41 54.67v9.47h144.17v-9.47c-39.99 0-46.3-6.31-46.3-54.67V49.67c0-30.49 9.47-39.95 46.3-39.95Zm142.08 54.67c0-48.36 7.36-54.67 46.3-54.67V.26h-141.02v9.46c39.99 0 46.31 6.31 46.31 54.67v216.6c0 48.36-7.37 54.67-46.31 54.67v9.47h141.02v-9.47c-39.99 0-46.3-6.31-46.3-54.67v-91.48c0-9.46 4.21-12.61 14.73-12.61h152.59c11.58 0 14.74 4.2 14.74 15.77v88.32c0 48.36-7.37 54.67-46.31 54.67v9.47h141.02v-9.47c-39.99 0-46.3-6.31-46.3-54.67V64.39c0-48.36 7.36-54.67 46.3-54.67V.26h-141.02v9.46c39.99 0 46.31 6.31 46.31 54.67v80.96c0 12.62-3.16 15.78-14.74 15.78h-153.64c-10.53 0-14.74-3.16-14.74-11.57V64.39h1.06Z" style="fill:#fff"/></svg>