<svg viewBox="0 0 126 20" fill="none" xmlns="http://www.w3.org/2000/svg">
  <path d="M8.95404 12.8268L0 0V19.3197H2.66963V8.50101L8.95404 17.4957L15.2384 8.50101V19.3197H17.9081V0L8.95404 12.8268Z" fill="#453E41"></path>
  <path d="M61.4104 1.26343L55.0763 10.1828L48.7421 1.26343H45.459L53.7415 12.9272V19.3197H56.4111V12.9105L64.6936 1.26343H61.4104Z" fill="#453E41"></path>
  <path d="M81.7888 1.26354V13.1449L69.4355 0.418457V19.3198H72.0969V7.01176L84.4584 19.7466V1.26354H81.7888Z" fill="#453E41"></path>
  <path d="M125.002 1.26367H110.477V3.95789H116.288V19.32H118.958V3.95789H125.002V1.26367Z" fill="#453E41"></path>
  <path d="M105.7 19.3198H108.71L99.0181 0.418457L89.3594 19.3198H92.3689L94.425 15.3036H103.669L105.725 19.3198H105.7ZM95.7764 12.6261L99.0098 6.30057L102.26 12.6261H95.7764Z" fill="#453E41"></path>
  <path d="M33.3044 0.418457C31.4104 0.418457 29.559 0.985249 27.9843 2.04715C26.4096 3.10905 25.1822 4.61837 24.4574 6.38424C23.7327 8.15012 23.543 10.0932 23.9125 11.9679C24.282 13.8425 25.194 15.5645 26.5332 16.916C27.8724 18.2676 29.5787 19.188 31.4362 19.5609C33.2937 19.9338 35.2191 19.7424 36.9689 19.0109C38.7186 18.2795 40.2142 17.0408 41.2664 15.4516C42.3186 13.8623 42.8802 11.9939 42.8802 10.0825C42.8802 7.51944 41.8713 5.06135 40.0755 3.24899C38.2797 1.43663 35.844 0.418457 33.3044 0.418457V0.418457ZM33.3044 16.9101C31.9643 16.9101 30.6544 16.509 29.5403 15.7574C28.4262 15.0059 27.5581 13.9378 27.0456 12.6882C26.5332 11.4386 26.3995 10.0637 26.6616 8.73744C26.9236 7.41116 27.5695 6.19313 28.5177 5.23744C29.4658 4.28175 30.6735 3.63134 31.988 3.36852C33.3025 3.1057 34.6647 3.24227 35.9022 3.76095C37.1398 4.27963 38.1971 5.15711 38.9404 6.28237C39.6837 7.40764 40.0796 8.73013 40.0779 10.0825C40.0779 10.9798 39.9027 11.8683 39.5622 12.6972C39.2216 13.5262 38.7226 14.2792 38.0935 14.9133C37.4644 15.5474 36.7176 16.0502 35.8959 16.3928C35.0741 16.7354 34.1935 16.9112 33.3044 16.9101V16.9101Z" fill="#453E41"></path>
  </svg>