<?xml version="1.0" encoding="UTF-8" standalone="no"?>
<!DOCTYPE svg PUBLIC "-//W3C//DTD SVG 1.1//EN" "http://www.w3.org/Graphics/SVG/1.1/DTD/svg11.dtd">
<svg width="100%" height="100%" viewBox="0 0 198 70" version="1.1" xmlns="http://www.w3.org/2000/svg" xmlns:xlink="http://www.w3.org/1999/xlink" xml:space="preserve" xmlns:serif="http://www.serif.com/" style="fill-rule:evenodd;clip-rule:evenodd;stroke-linejoin:round;stroke-miterlimit:2;">
    <path d="M34.595,0C15.469,0.171 0,15.727 0,34.907C0,54.18 15.63,69.805 34.907,69.805L162.71,69.805C181.885,69.805 197.446,54.35 197.612,35.22L197.612,34.595C197.446,15.561 182.051,0.166 163.022,0L34.595,0ZM3.423,34.907C3.423,17.515 17.52,3.423 34.907,3.423L162.71,3.423C180.097,3.423 194.19,17.515 194.19,34.907C194.19,52.29 180.097,66.387 162.71,66.387L34.907,66.387C17.52,66.387 3.423,52.29 3.423,34.907M123.813,26.397L123.818,36.138C123.818,38.179 122.515,39.741 120.132,39.741C117.745,39.741 116.446,38.013 116.446,36.099L116.446,24.492C116.446,24.146 116.162,23.862 115.816,23.862L113.755,23.862C112.353,23.862 111.226,24.995 111.226,26.397L111.231,36.118C111.231,38.154 109.927,39.741 107.543,39.741C105.273,39.741 103.857,38.154 103.857,36.118L103.852,24.492C103.852,24.146 103.57,23.862 103.227,23.862L101.167,23.862C99.771,23.862 98.637,24.995 98.637,26.397L98.637,36.06C98.637,41.016 101.831,44.829 107.373,44.829C109.838,44.829 112.231,43.843 113.843,42.236C115.463,43.843 117.935,44.829 120.396,44.829C126.167,44.829 129.038,40.674 129.038,36.064L129.028,24.492C129.028,24.146 128.75,23.862 128.403,23.862L126.343,23.862C124.946,23.862 123.813,24.995 123.813,26.397M163.061,23.877C158.34,23.877 154.707,27.319 154.707,32.632L154.707,42.285C154.707,43.682 155.835,44.81 157.231,44.81L159.297,44.81C159.643,44.81 159.927,44.531 159.927,44.185L159.927,32.485C159.927,30.405 161.543,28.931 163.378,28.96L170.151,28.96C171.548,28.96 172.681,27.832 172.681,26.435L172.681,24.497C172.681,24.155 172.397,23.877 172.046,23.877L163.061,23.877ZM82.876,23.877C77.798,23.877 74.517,27.739 74.517,32.466L74.517,36.064C74.517,41.26 78.032,44.805 82.876,44.805L88.481,44.805C93.203,44.805 96.841,41.377 96.841,36.064L96.841,32.466C96.841,27.739 93.555,23.877 88.481,23.877L82.876,23.877ZM79.736,36.064L79.736,32.617C79.736,30.532 81.118,28.96 83.193,28.96L88.168,28.96C90.122,28.96 91.621,30.415 91.621,32.617L91.621,36.064C91.621,38.257 90.122,39.717 88.168,39.717L83.193,39.717C81.118,39.717 79.736,38.14 79.736,36.064M51.953,23.877L51.953,42.3C51.953,43.696 53.081,44.81 54.482,44.81L56.543,44.81C56.89,44.81 57.173,44.536 57.173,44.194L57.173,39.36L65.552,39.36C69.858,39.36 72.955,36.411 72.955,31.675C72.955,26.982 69.858,23.877 65.552,23.877L51.953,23.877ZM57.173,28.97L65.366,28.97C66.797,28.97 67.74,30.147 67.74,31.572C67.74,33.008 66.797,34.263 65.366,34.263L57.173,34.263L57.173,28.97ZM35.874,23.877C31.03,23.877 27.515,27.441 27.515,32.632L27.515,42.285C27.515,43.682 28.647,44.81 30.044,44.81L32.105,44.81C32.456,44.81 32.734,44.531 32.734,44.185L32.734,32.617C32.734,30.425 34.229,28.975 36.187,28.975L44.126,28.975L44.126,42.285C44.126,43.682 45.253,44.81 46.651,44.81L48.716,44.81C49.062,44.81 49.341,44.531 49.341,44.185L49.341,23.877L35.874,23.877ZM139.292,23.877C134.566,23.877 130.932,27.329 130.932,32.642L130.932,36.099C130.932,41.289 134.517,44.805 139.243,44.805L149.682,44.805C151.08,44.805 152.212,43.73 152.212,42.334L152.202,40.347C152.202,39.995 151.923,39.717 151.577,39.717L139.302,39.717C137.573,39.717 136.157,38.574 136.157,37.212L146.147,37.212C149.902,37.212 152.807,34.184 152.807,30.371C152.807,26.855 149.731,23.877 146.147,23.877L139.292,23.877ZM139.302,28.96L145.991,28.96C146.861,28.96 147.578,29.673 147.578,30.566C147.578,31.397 146.9,32.158 145.991,32.158L136.167,32.163C136.167,30.239 137.246,28.96 139.302,28.96" style="fill:white;"/>
</svg>
