<svg id="a" xmlns="http://www.w3.org/2000/svg" viewBox="0 0 1218.3 359" class="new-repossi-logo" width="150">
    <g id="b"><g id="c"><path id="d" d="m164.1,170.2h.9v7h-36.4l-.3-.3c-10.8-13.1-19-26.5-26.2-38.2-14.5-23.6-25-40.6-45.3-40.6h-12.7v45.9c0,19.8,4.4,26.2,18.4,26.2h1v7H0v-7h1c12.7,0,18.4-3.8,18.4-26.2V36.8C19.4,14.8,14,11.2,1,11.2H0v-7h71.1c18.1,0,33.2,4.9,43.7,14.1,9.2,8.2,14.4,19.5,14.4,31.6,0,14.5-6,33.4-34,42.5,13.9,9.7,23.6,25.9,33,41.5,10.8,18.1,21,35.2,35.9,36.3Zm-60.8-119.7c0-22.6-17-37.8-42.3-37.8h-16.9v76.3h19.9c29,0,39.3-19.9,39.3-38.5Z" fill="#231f20" fill-rule="evenodd"></path>
        <path id="e" d="m346.1,143.3h1.3l-.3,1.2-7.8,32-.2.7h-125.1v-7h1c12.8,0,18.4-3.8,18.4-25.9V37.4c0-20.3-4.1-26.2-18.4-26.2h-1v-7h125.3v30.6h-5.1l-.1-.8c-3.7-17.7-8.5-19.5-27.7-19.5h-48.3v71.2h46.8c11.6,0,15.3-2.1,17.5-15.9l.2-.8h6.9v43.4h-6.9l-.1-.7c-3.5-14.2-5.7-15.7-23-15.7h-41.4v60.2c0,8.1,2.8,10.7,11.6,10.7h29.8c24.4,0,30.6-.9,40.6-23l.3-.6h5.7Z" fill="#231f20"></path><path id="f" d="m537.1,53.8c0,29.2-21.8,45.2-61.3,45.2-7.2,0-13.4-.3-25.3-1.7v46.7c0,20,4.3,26.2,18.4,26.2h1v7h-63.5v-7h1c11.9,0,18.4-4.1,18.4-25.6V37.4c0-19.8-4.5-26.2-18.4-26.2h-1v-7h63.4c49.6,0,67.3,26.7,67.3,49.6h0Zm-25.9.6c0-19.2-10.6-41.7-40.5-41.7h-20.2v75c7.3,2.5,11.6,2.8,20.2,2.8,25.3,0,40.5-13.5,40.5-36.1Z" fill="#231f20" fill-rule="evenodd"></path>
            <path id="g" d="m768.2,89.9c0,51-40.3,91-91.8,91s-91.6-40-91.6-91S624.4.5,677,.5s91.2,39.3,91.2,89.4h0Zm-27.2,1.5c0-49.8-25.5-83.4-63.4-83.4-39.8,0-65.5,32.3-65.5,82.3s25.7,83,64,83c19.8,0,36.6-8.7,48.4-25.4,10.6-14.9,16.5-35,16.5-56.5h0Z" fill="#231f20" fill-rule="evenodd"></path>
                <path id="h" d="m915,97c10.6,10.7,15.2,21.1,15.2,34.8,0,27.3-22.3,49.6-49.7,49.6-11.8,0-22.3-3.7-29.9-6.4-4.1-1.4-7.3-2.6-9.2-2.6-1.6,0-3.8.6-5.6,5.9l-.2.7h-6.8v-48.2h7l.1.9c.2,30.2,24.1,41.2,40.2,41.2,20.2,0,33.3-11.6,33.3-29.5,0-19.2-20-31.6-39.4-43.5-9.7-6.1-19-11.8-25.4-18.2-10-10-14.9-22-14.9-36.5,0-27.1,19.1-45.2,47.5-45.2,11.6,0,19.4,2.6,25.1,4.5,3.4,1.2,6.1,2.1,8.4,2.1,2,0,2.4,0,3.5-4.1l.2-.7h6.5v42h-6.9l-.1-.9c-2.7-25.3-20.8-34.4-36.9-34.4-17.9,0-29.8,10-29.8,24.7,0,19.8,17.9,30.4,36.8,41.7,10.9,6.5,22.1,13.3,31,22.1h0Z" fill="#231f20"></path><path id="i" d="m1082.8,97c10.6,10.7,15.2,21.1,15.2,34.7,0,27.4-22.3,49.7-49.7,49.7-11.8,0-22.3-3.7-29.9-6.4-4.1-1.4-7.3-2.6-9.2-2.6-1.7,0-3.9.7-5.6,5.9l-.3.7h-6.7v-48.2h7v.9c.3,30.2,24.2,41.1,40.2,41.1,20.3,0,33.4-11.5,33.4-29.4,0-19.2-20-31.6-39.4-43.5-9.8-6.1-19-11.8-25.4-18.2-10-10-14.9-22-14.9-36.5,0-27.1,19.1-45.2,47.5-45.2,11.6,0,19.4,2.6,25.1,4.5,3.4,1.2,6.1,2.1,8.4,2.1,2,0,2.3,0,3.5-4.1l.2-.7h6.5v42h-6.9l-.1-.9c-2.7-25.3-20.9-34.4-37-34.4-17.8,0-29.7,10-29.7,24.7,0,19.8,17.8,30.4,36.8,41.7,10.8,6.5,22.1,13.3,31,22.1h0Z" fill="#231f20"></path>
                    <path id="j" d="m1218.3,4.2v7h-1c-14,0-18.4,6.4-18.4,26.2v106.6c0,20,4.3,26.2,18.4,26.2h1v7h-63.5v-7h1c15.8,0,18.4-8.1,18.4-26.2V37.4c0-20.6-4-26.2-18.4-26.2h-1v-7h63.5Z" fill="#231f20"></path></g><g id="k"><g id="l"><path id="m" d="m253.2,359c-11.2,0-13.4-10.2-13.4-19.7,0-10.9,2.8-22.1,13.6-22,7.6.1,11.5,4.7,11.5,10.3h-3.9c-.4-4.7-2.7-7.2-7.6-7.2-8.9,0-9.8,11.4-10,18.4,2-4.4,5.7-6.5,10.3-6.5,7.5,0,11.7,5.8,11.7,13.2s-4.9,13.5-12.2,13.5Zm.1-23.8c-5.7,0-9.1,4.7-9.1,10.4s3.3,10.1,8.8,10.1c5.8,0,8.6-4.6,8.6-10.3s-2.6-10.2-8.3-10.2Z" fill="#231f20" fill-rule="evenodd"></path><path id="n" d="m310.2,339.5c-2.4.8-5.2.9-8.1.9h-6.5v18h-3.6v-40.4h11.3c3.3,0,6.6.1,9.6,1.9,3.2,2,4.8,5.7,4.8,9.4,0,4.9-2.8,8.6-7.5,10.2h0Zm-6.7-18.5h-7.9v16.4h6c2.2,0,5.3-.1,7.4-.8,3.1-1.1,4.7-4.5,4.7-7.7,0-6.7-4.6-7.9-10.2-7.9Z" fill="#231f20" fill-rule="evenodd"></path><path id="o" d="m327.5,358.4v-40.4h3.7v37.4h20.3v3h-24Z" fill="#231f20"></path><path id="p" d="m391.3,358.4l-4.6-11.3h-20.5l-4.3,11.3h-3.9l16.5-40.4h3.9l17.1,40.4h-4.2Zm-15.1-36.9l-8.7,22.6h18l-9.3-22.6Z" fill="#231f20" fill-rule="evenodd"></path>
                        <path id="q" d="m417.8,359c-12.2,0-17.1-9.4-17.1-20.4s5.6-21.2,17.4-21.2c4.3,0,8.6,1.2,11.2,4.8,1.2,1.6,2,3.5,2.1,5.5h-3.9c-.5-4.9-4.9-7.1-9.4-7.1-9.7,0-13.5,9.2-13.5,17.5s3.2,17.7,13.3,17.7c4.4,0,9-2.5,9.6-7.3h4c-1.2,6.7-6.6,10.5-13.7,10.5h0Z" fill="#231f20"></path><path id="r" d="m442.2,358.4v-40.4h23.9v3h-20.3v14.9h19.6v3h-19.6v16.5h21.2v3h-24.8Z" fill="#231f20"></path><path id="s" d="m508.2,358.4h-4.1l-15.6-40.4h3.9l13.8,36.8,13.7-36.8h3.7l-15.4,40.4Z" fill="#231f20"></path><path id="t" d="m532.6,358.4v-40.4h24v3h-20.3v14.9h19.5v3h-19.5v16.5h21.2v3h-24.9Z" fill="#231f20"></path><path id="u" d="m593,358.4l-21.9-36v36h-3.4v-40.4h4.9l21.9,36.1v-36.1h3.4v40.4h-4.9Z" fill="#231f20"></path><path id="v" d="m626.4,358.3c-2.2.2-4.5.1-6.7.1h-8.5v-40.4h10.9c2.4,0,4.8,0,7.2.4,9.9,1.9,13.7,10.5,13.7,19.7,0,10.9-5.1,19.1-16.6,20.2h0Zm6.7-35c-3.1-2.2-7.5-2.3-11.2-2.3h-7v34.4h8.2c11.7,0,16.1-6.1,16.1-17.4,0-5.5-1.3-11.3-6.1-14.7Z" fill="#231f20" fill-rule="evenodd"></path><path id="w" d="m669.6,359c-12.5,0-17.7-9.5-17.7-20.9s5.5-20.8,17.7-20.8,17.8,8.8,17.8,20.5-5.1,21.2-17.8,21.2Zm0-38.6c-10.1,0-13.7,9-13.7,17.7s3.6,17.9,13.7,17.9,13.7-9,13.7-17.9-3.3-17.7-13.7-17.7Zm5.1-5.4l-4.9-5.9-5.1,5.9h-2.6l5.7-8.2h4l5.5,8.2h-2.6Z" fill="#231f20" fill-rule="evenodd"></path><path id="x" d="m736,358.4v-37.4l-15.2,37.4h-3.6l-15.3-37.4v37.4h-3.4v-40.4h6l14.6,36.1,14.5-36.1h6v40.4h-3.6Z" fill="#231f20"></path><path id="y" d="m753,358.4v-40.4h24v3h-20.4v14.9h19.6v3h-19.6v16.5h21.2v3h-24.8Z" fill="#231f20"></path></g><g id="z"><path id="aa" d="m847.2,339.5c-2.4.8-5.2.9-8.1.9h-6.5v18h-3.6v-40.4h11.3c3.3,0,6.6.1,9.6,1.9,3.2,2,4.7,5.7,4.7,9.4,0,4.9-2.7,8.6-7.4,10.2h0Zm-6.7-18.5h-7.9v16.4h6c2.2,0,5.3-.1,7.4-.8,3.1-1.1,4.7-4.5,4.7-7.7,0-6.7-4.7-7.9-10.2-7.9Z" fill="#231f20" fill-rule="evenodd"></path><path id="ab" d="m890.2,358.4l-4.6-11.3h-20.5l-4.3,11.3h-3.9l16.5-40.4h3.8l17.2,40.4h-4.2Zm-15.1-36.9l-8.8,22.6h18l-9.2-22.6Z" fill="#231f20" fill-rule="evenodd"></path><path id="ac" d="m926.6,358.4c-1.4-2.9-1.4-6.5-1.6-9.7-.6-6.7-1-9.8-8.3-9.8h-9.6v19.5h-3.6v-40.4h13.6c6.3,0,12.7,2.4,12.7,9.7,0,5.4-2.9,8.1-7.8,9.7,2.2.3,4.2,1.4,5.2,3.5,1.9,4.3,1.2,15,3.6,17.5h-4.2Zm-10.4-37.4h-9.1v14.9h8.8c5.4,0,10-1.5,10-7.8s-4.7-7.1-9.7-7.1h0Z" fill="#231f20" fill-rule="evenodd"></path><path id="ad" d="m942.1,358.4v-40.4h3.6v40.4h-3.6Z" fill="#231f20"></path><path id="ae" d="m970,358.9c-7.4,0-12.8-3.2-13.5-11h3.8c.2,5.8,4.7,8,9.9,8,4.8,0,10.5-2.2,10.5-7.9,0-11.1-23-6.1-23-19.8,0-7.5,6.6-10.7,13.3-10.7,6.2,0,12.5,2.3,12.6,9.5h-3.7c-.5-5-4.2-6.5-8.7-6.5s-9.8,2.1-9.8,7.5c0,1.9.7,3.5,2.2,4.7,5,3.9,13.3,3.9,18.1,8.1,1.9,1.7,2.7,4.2,2.7,6.6,0,8.1-7.2,11.5-14.4,11.5h0Z" fill="#231f20"></path></g></g></g></svg>