<svg class="icon icon--wide icon-logo" width="90" height="25" viewBox="0 0 90 25" fill="none" aria-hidden="true" focusable="false" role="presentation" xmlns="http://www.w3.org/2000/svg">
  <path d="M59.128 14.445L55.02 0.300139H50.553V24.7002H54.664V11.1288L58.964 24.7002H63.24V0.300139H59.128V14.446V14.445ZM83.946 20.5213V0.300139H79.835V24.7002H90V20.5244H83.947L83.946 20.5213ZM71.563 0.00070156C70.7923 -0.00915252 70.0278 0.14121 69.3161 0.442595C68.6044 0.743979 67.9606 1.19005 67.424 1.75353C66.8686 2.30408 66.4292 2.96422 66.1328 3.69359C65.8364 4.42297 65.6891 5.20625 65.7 5.99555V19.018C65.6902 19.8027 65.8365 20.5812 66.13 21.3068C66.4236 22.0323 66.8583 22.6898 67.408 23.2397C68.2257 24.0787 69.2701 24.6509 70.4081 24.8835C71.5462 25.1162 72.7264 24.9987 73.7987 24.546C74.871 24.0933 75.7867 23.3259 76.4295 22.3415C77.0722 21.3571 77.4128 20.2002 77.408 19.018V10.4036H71.222V14.61H73.171V18.9803C73.1715 19.2107 73.1273 19.4389 73.0408 19.6518C72.9544 19.8646 72.8274 20.058 72.6672 20.2206C72.5071 20.3833 72.3169 20.512 72.1076 20.5995C71.8984 20.6869 71.6742 20.7313 71.448 20.7301C71.2242 20.7346 71.002 20.6917 70.7954 20.6041C70.5888 20.5164 70.4024 20.3859 70.248 20.2208C70.0855 20.0603 69.9573 19.8674 69.8713 19.6541C69.7853 19.4409 69.7433 19.2118 69.748 18.9813V5.93037C69.7434 5.69868 69.7854 5.46848 69.8714 5.25392C69.9574 5.03937 70.0856 4.84498 70.248 4.68272C70.4021 4.51733 70.5885 4.3866 70.7952 4.2989C71.0018 4.2112 71.2242 4.16848 71.448 4.17347C71.6748 4.17333 71.8994 4.21883 72.1089 4.30736C72.3184 4.39588 72.5087 4.52569 72.6688 4.68932C72.8289 4.85294 72.9557 5.04717 73.0418 5.26085C73.128 5.47453 73.1719 5.70344 73.171 5.93444V8.80863H77.409V5.99555C77.4197 5.20967 77.2747 4.42966 76.9826 3.70218C76.6905 2.9747 76.2573 2.3147 75.709 1.76168C75.1738 1.1938 74.5294 0.744353 73.8161 0.441374C73.1028 0.138394 72.3358 -0.0116165 71.563 0.00070156ZM41.578 8.27087L40.628 15.1233H42.528L41.578 8.27087ZM44.269 0.300139L48.258 24.6992H43.968L43.139 19.237H40L39.147 24.6992H34.885L38.925 0.300139H44.269ZM19.666 4.58392H17.861V11.5626H19.666C19.8899 11.568 20.1124 11.5255 20.3191 11.4377C20.5258 11.35 20.7121 11.2191 20.866 11.0534C21.0256 10.8918 21.1514 10.6989 21.2358 10.4864C21.3202 10.2739 21.3614 10.0461 21.357 9.81694V6.35406C21.358 5.14409 20.82 4.58392 19.666 4.58392ZM23.544 14.1007L26.193 24.6992H21.784L19.65 15.7293H17.86V24.6992H13.75V0.300139H19.572C20.4084 0.230122 21.2496 0.352483 22.0334 0.658175C22.8172 0.963866 23.5234 1.44507 24.1 2.06621C25.0101 3.26919 25.4648 4.7655 25.381 6.28175V9.73546C25.3921 10.5537 25.2343 11.3652 24.9179 12.1173C24.6014 12.8695 24.1334 13.5456 23.544 14.1017V14.1007ZM0 4.50652H3.721V24.7002H7.832V4.50652H11.541V0.300139H0V4.50652ZM28.507 24.7002H32.618V0.300139H28.507V24.7002Z" fill="black"></path>
</svg>