<?xml version="1.0" encoding="UTF-8" standalone="no"?>
<!DOCTYPE svg PUBLIC "-//W3C//DTD SVG 1.1//EN" "http://www.w3.org/Graphics/SVG/1.1/DTD/svg11.dtd">
<svg width="100%" height="100%" viewBox="0 0 150 21" version="1.1" xmlns="http://www.w3.org/2000/svg" xmlns:xlink="http://www.w3.org/1999/xlink" xml:space="preserve" xmlns:serif="http://www.serif.com/" style="fill-rule:evenodd;clip-rule:evenodd;stroke-linejoin:round;stroke-miterlimit:2;">
    <g transform="matrix(1,0,0,1,-158.398,-262.513)">
        <path d="M244.888,278.344L241.451,278.344L241.451,278.855L242.892,278.855L242.892,282.542L243.447,282.542L243.447,278.855L244.888,278.855L244.888,278.344ZM224.635,278.344L222.192,278.344L222.192,282.544L224.635,282.544L224.635,282.034L222.746,282.034L222.746,280.634L224.5,280.634L224.5,280.123L222.749,280.123L222.749,278.86L224.638,278.86L224.635,278.344ZM163.957,273.559L168.948,262.612L167.422,262.612L163.674,270.887L159.941,262.612L158.4,262.612L163.391,273.559L163.957,273.559ZM170.657,273.459L172.091,273.459L172.091,262.61L170.657,262.61L170.657,273.459ZM182.97,265.69L184.015,264.769C182.968,263.318 181.271,262.473 179.482,262.513C179.447,262.512 179.412,262.512 179.377,262.512C176.347,262.512 173.853,265.006 173.853,268.036C173.853,271.066 176.347,273.56 179.377,273.56C179.412,273.56 179.447,273.56 179.482,273.559C181.25,273.599 182.931,272.775 183.982,271.353L182.96,270.411C182.193,271.568 180.87,272.238 179.484,272.172C177.243,272.13 175.422,270.275 175.422,268.034C175.422,265.763 177.291,263.895 179.561,263.895C180.923,263.895 182.201,264.567 182.972,265.689M190.247,263.931L193.971,263.931L193.971,262.611L185.088,262.611L185.088,263.931L188.812,263.931L188.812,273.46L190.246,273.46L190.247,263.931ZM203.763,268.031C203.763,268.052 203.764,268.074 203.764,268.095C203.764,270.33 201.924,272.169 199.689,272.169C197.455,272.169 195.615,270.33 195.615,268.095C195.615,268.074 195.616,268.052 195.616,268.031C195.616,268.01 195.615,267.988 195.615,267.967C195.615,265.732 197.455,263.893 199.689,263.893C201.924,263.893 203.764,265.732 203.764,267.967C203.764,267.988 203.763,268.01 203.763,268.031M205.309,268.031C205.31,267.998 205.31,267.966 205.31,267.933C205.31,264.849 202.772,262.312 199.689,262.312C196.605,262.312 194.068,264.849 194.068,267.933C194.068,271.016 196.605,273.554 199.688,273.554C199.745,273.556 199.802,273.557 199.86,273.557C202.849,273.557 205.31,271.096 205.31,268.107C205.31,268.081 205.309,268.056 205.309,268.031M210.744,267.581L208.6,267.581L208.6,263.93L210.7,263.93C212.091,263.93 212.888,264.572 212.888,265.693C212.888,265.704 212.888,265.715 212.888,265.725C212.888,266.757 212.039,267.606 211.007,267.606C210.915,267.606 210.823,267.599 210.732,267.586M215.489,273.461L212.162,268.731C213.484,268.319 214.386,267.078 214.369,265.693C214.369,265.676 214.369,265.66 214.369,265.643C214.369,263.973 212.995,262.598 211.324,262.598C211.235,262.598 211.146,262.602 211.057,262.61L207.164,262.61L207.164,273.461L208.6,273.461L208.6,268.906L210.584,268.906L213.784,273.461L215.489,273.461ZM217.399,279.505C217.399,279.954 216.999,280.156 216.609,280.156L215.9,280.156L215.9,278.892L216.671,278.892C217.029,278.892 217.411,279.053 217.411,279.506M215.9,280.668L216.721,280.668C217.259,280.668 217.569,280.919 217.569,281.358C217.551,281.758 217.217,282.076 216.817,282.076C216.789,282.076 216.762,282.075 216.735,282.072L215.9,282.072L215.9,280.668ZM216.7,278.382L215.34,278.382L215.34,282.582L216.647,282.582C216.997,282.582 218.137,282.494 218.137,281.357C218.157,280.927 217.897,280.531 217.495,280.377C217.807,280.2 217.997,279.864 217.986,279.505C217.965,278.878 217.443,278.374 216.816,278.374C216.776,278.374 216.737,278.376 216.698,278.38M217.325,273.459L218.76,273.459L218.76,262.61L217.325,262.61L217.325,273.459ZM227.493,269.589L223.519,269.589L225.51,265.202L227.493,269.589ZM229.243,273.461L230.786,273.461L225.795,262.514L225.227,262.514L220.219,273.461L221.762,273.461L222.943,270.861L228.068,270.861L229.243,273.461ZM231.061,281.039L229.522,281.039L230.293,279.339L231.061,281.039ZM231.739,282.539L232.339,282.539L230.4,278.3L230.18,278.3L228.239,282.542L228.839,282.542L229.297,281.534L231.283,281.534L231.739,282.539ZM235.626,278.345L235.07,278.345L235.07,280.977C235.067,281.2 235.109,281.421 235.192,281.628C235.269,281.817 235.384,281.989 235.528,282.134C235.67,282.277 235.841,282.389 236.028,282.464C236.43,282.618 236.876,282.618 237.278,282.464C237.465,282.389 237.636,282.277 237.778,282.134C237.922,281.989 238.037,281.817 238.114,281.628C238.197,281.421 238.239,281.2 238.236,280.977L238.236,278.345L237.68,278.345L237.68,280.89C237.68,281.025 237.662,281.159 237.628,281.29C237.594,281.426 237.535,281.555 237.454,281.669C237.371,281.787 237.262,281.884 237.136,281.953C236.829,282.099 236.471,282.099 236.164,281.953C236.038,281.884 235.929,281.787 235.846,281.669C235.765,281.554 235.706,281.426 235.672,281.29C235.638,281.159 235.621,281.025 235.62,280.89L235.626,278.345ZM241.317,270.296C241.27,271.328 240.409,272.151 239.376,272.151C239.305,272.151 239.234,272.147 239.163,272.139L237.009,272.139L237.009,268.515L239.129,268.515C240.52,268.515 241.318,269.164 241.318,270.296M240.91,265.514C240.91,266.675 239.885,267.194 238.87,267.194L237.009,267.194L237.009,263.93L239,263.93C239.923,263.93 240.909,264.346 240.909,265.514M241.139,267.765C241.946,267.309 242.435,266.44 242.407,265.514C242.348,263.897 241.002,262.599 239.384,262.599C239.282,262.599 239.18,262.604 239.079,262.614L235.573,262.614L235.573,273.463L238.949,273.463C239.849,273.463 242.796,273.235 242.796,270.3C242.849,269.19 242.178,268.164 241.139,267.769M244.7,273.463L251.012,273.463L251.012,272.143L246.132,272.143L246.132,268.519L250.655,268.519L250.655,267.2L246.132,267.2L246.132,263.935L251.012,263.935L251.012,262.615L244.7,262.615L244.7,273.463ZM249.867,280.795L251.455,278.395L250.762,278.395L249.583,280.237L248.404,278.395L247.711,278.395L249.299,280.795L249.299,282.584L249.869,282.584L249.867,280.795ZM261.604,265.695L262.649,264.774C261.602,263.323 259.905,262.478 258.116,262.518C258.081,262.517 258.046,262.517 258.011,262.517C254.981,262.517 252.487,265.011 252.487,268.041C252.487,271.071 254.981,273.565 258.011,273.565C258.046,273.565 258.081,273.565 258.116,273.564C259.884,273.603 261.564,272.78 262.616,271.358L261.594,270.416C260.827,271.573 259.504,272.243 258.118,272.177C255.877,272.135 254.056,270.28 254.056,268.039C254.056,265.768 255.925,263.9 258.195,263.9C259.557,263.9 260.835,264.572 261.606,265.694M273.463,273.464L267.871,267.49L272.782,262.616L270.906,262.616L266.044,267.43L266.044,262.616L264.612,262.616L264.612,273.465L266.044,273.465L266.044,269.3L266.893,268.452L271.604,273.463L273.463,273.464ZM282.783,273.464L284.217,273.464L284.217,262.612L282.783,262.612L282.783,267.2L276.622,267.2L276.622,262.615L275.191,262.615L275.191,273.46L276.622,273.46L276.622,268.516L282.783,268.516L282.783,273.464ZM293.033,269.592L289.06,269.592L291.051,265.205L293.033,269.592ZM294.784,273.464L296.326,273.464L291.335,262.517L290.767,262.517L285.76,273.464L287.3,273.464L288.481,270.864L293.606,270.864L294.784,273.464ZM308.4,273.464L308.4,262.612L306.526,262.612L303.051,270.987L299.576,262.612L297.7,262.612L297.7,273.46L299.054,273.46L299.054,264.807L302.674,273.46L303.427,273.46L307.047,264.807L307.047,273.46L308.4,273.464Z" style="fill:white;fill-rule:nonzero;"/>
    </g>
</svg>
